<?xml version="1.0" encoding="UTF-8"?>
<svg id="_Слой_2" data-name="Слой 2" xmlns="http://www.w3.org/2000/svg" viewBox="0 0 140.73 57.86">
  <defs>
    <style>
      .cls-1 {
        fill: #6b356b;
        stroke-width: 0px;
      }
    </style>
  </defs>
  <g id="OBJECTS">
    <g>
      <path class="cls-1" d="m69.07,12.4c.53-.19.71-.64.9-1.11.64-1.6,1.67-2.95,2.84-4.2.71-.76,1.44-1.41,1.17-2.71-.2-.95.57-1.55,1.54-1.62,1.17-.08,2.17.62,2.39,1.66.19.94-.15,1.6-1.25,1.88-2.59.66-3.52,2.85-5.14,5.03,2.89-.67,5.29-1.2,7.67-1.8,1.04-.26,1.91-.89,2.73-1.58,1.62-1.37,3.27-2.7,4.91-4.05,1.21-.99,2.49-1.88,3.86-2.61.75-.4,1.52-.76,2.32-1.04,1.34-.46,2.64-.3,3.88.43,1.78,1.05,2.06,2.69.59,4.19-1.84,1.87-4.31,2.65-6.63,3.69-.59.27-1.34.27-1.87.96,3.59.79,6.75,2.44,10.17,3.35.81.22,1.62.53,2.38.89.73.35,1.31.5,2.15.1,1.19-.57,2.12-.08,2.6,1.02.48,1.11.19,2.34-.68,2.82-.97.54-2.41.23-2.92-.89-.83-1.82-2.46-1.94-4.35-2.58.71,1.3,1.4,2.23,1.41,3.27.04,2.37,1.38,4.08,2.64,5.86.45.64.9,1.28,1.25,1.97.9,1.76,1.19,3.64.72,5.57-.46,1.88-1.93,2.44-3.56,1.44-1.35-.83-2.08-2.09-2.36-3.62-.31-1.75-.39-3.52-.06-5.28.3-1.62.26-3.24.07-4.86-.22-1.87-.89-2.94-2.34-3.97.14.62.29,1.17.39,1.72.27,1.54.38,3.09-.01,4.63-.43,1.72-1.48,2.73-2.81,2.7-1.25-.03-2.16-.94-2.64-2.65-.29-1.03-.37-2.09-.32-3.15.07-1.49.33-2.94.77-4.37.49-1.59.38-1.76-1.28-2.16-2.28-.55-4.6-.78-6.95-.64-.95.06-1.94-.02-3.11.48,2.06,1.04,3.79,2.09,5.94,2,.87-.04,1.17.67,1.44,1.34.29.71.27,1.39-.31,1.95-.57.55-1.25.62-1.97.33-.69-.27-1.28-.67-1.32-1.5-.04-.78-.56-1.11-1.17-1.34-1.19-.46-2.39-.92-3.51-1.48-3.28-1.61-5.92.27-8.91,1.06.4.61.77.56,1.12.59,1.83.17,3.65.43,5.44.9,1.66.44,3.19,1.2,4.59,2.17,1.66,1.15,1.51,2.91-.23,3.92-.88.51-1.84.71-2.85.73-2.01.05-3.94-.3-5.8-1.06-2.69-1.1-5.37-2.2-7.72-3.96-.45-.34-.93-.66-1.55-.34-2.85,1.48-5.71,2.95-8.57,4.43.03.16.06.32.09.48,2.41-.3,4.58,1.08,7.03.71.98-.15,1.84.62,2.05,1.5.24.97-.29,1.93-1.31,2.38-1.39.61-2.69.1-3.25-1.33-.22-.57-.19-1.21-1.03-1.4-2.61-.6-5.28-.64-7.76.11-2.16.65-4.08,2.11-6.15,3.23.52.55,1.04.29,1.49.28,1.84-.02,3.69.03,5.5.38,2.29.44,4.59.96,6.52,2.39,1.02.75,2.23,1.52,1.87,3.04-.35,1.49-1.76,1.76-3,1.98-3.99.68-7.88.36-11.65-1.23-2.1-.88-4.03-2.05-5.97-3.21-.59-.35-1.18-.9-1.94-.69-2.68.72-5.35,1.48-8.31,2.31,1.6.71,2.97.94,4.4.89.78-.02,1.56-.04,2.26.41.8.51,1.15,1.5.84,2.4-.3.86-1.27,1.35-2.26,1.08-.78-.21-1.42-.65-1.69-1.46-.13-.4-.18-.88-.7-.97-2.31-.41-4.46-1.61-6.73-1.81-2.62-.23-5.31.09-8.01.05,1.1.94,2.26,1.69,3.36,2.52,1.92,1.46,3.75,3.04,4.94,5.19.9,1.62.35,2.62-1.48,2.73-1.96.11-3.87-.28-5.44-1.45-4-2.97-7.5-6.47-10.18-10.69-.68-1.07-1.45-1.84-2.57-2.37-1.54-.73-2.99-1.62-4.27-2.75-.48-.42-.91-.89-1.19-1.47-.19-.4-.31-.84.18-1.1.34-.19.68-.03.94.25.48.52.88,1.14,1.43,1.55,4.34,3.21,9.13,5.35,14.55,5.95.88.1,1.57-.05,2.32-.64,2.07-1.62,3.96-3.41,5.78-5.29,1.77-1.83,3.6-3.61,5.68-5.09,1.16-.82,2.4-1.53,3.85-1.7,2.32-.28,3.69,1.5,2.79,3.61-.47,1.11-1.14,2.11-1.92,3.04-1.65,2-3.71,3.53-5.83,5.04,2.49-.36,4.85-1.02,7.18-1.82.49-.17.88-.46,1.16-.88,1.47-2.17,2.78-4.44,3.36-7.03.35-1.55,1.63-2.3,3.15-1.72.28.11.47.28.56.58.33,1.17-.34,2.42-1.58,2.81-.46.15-.97.07-1.23.64-.57,1.25-1.18,2.49-1.96,4.09,2.74-.87,4.72-2.25,6.9-3.18,2.34-.99,3.39-2.86,4.12-5.06.24-.74.43-1.5.67-2.24,1.01-3.06,2.55-5.82,4.53-8.35.48-.62,1.07-1.13,1.75-1.52,1.14-.66,2.26-.67,3.41.04,1.19.74,1.45,1.84,1.36,3.11-.05.8-.42,1.49-.74,2.2-.9,1.95-2.22,3.59-3.62,5.32,3.34-1.51,6.65-3.09,10.1-4.35Zm-13.13,20.91c.81-.11,1.98-.1,2.18-.97.24-1.05-.95-1.39-1.71-1.84-1.72-1.02-3.62-1.55-5.58-1.84-3.44-.51-6.85-.31-10.77.35,5.06,3.62,10.17,5.1,15.88,4.3Zm-32.35-2.93c4.86-1.28,9.01-3.68,11.93-7.89.54-.77,1.49-1.7.66-2.63-.79-.89-1.86-.15-2.73.24-1.24.54-2.32,1.37-3.29,2.29-2.66,2.52-5.28,5.09-7.91,7.64-.08.08-.06.26-.09.4.49.24.98.08,1.44-.05ZM61.26,10.78c.32-.64.56-1.31.57-2.03.02-1.39-1.03-2.07-2.3-1.48-.99.47-1.64,1.33-2.25,2.2-2.01,2.86-3.52,5.96-4.33,9.92,3.57-2.56,6.48-5.05,8.3-8.61ZM10.68,31.22c-.34.52.16.78.39,1.05,2.01,2.45,4.18,4.76,6.61,6.79,1.75,1.46,3.72,2.55,6.32,2.25-1.39-3.5-7.86-8.36-13.32-10.1Zm64.26-11.19c1.59.37,3.21.57,4.82.08.55-.16,1.15-.4,1.18-1.06.03-.53-.46-.84-.89-1.1-1.16-.7-2.39-1.22-3.71-1.53-3.23-.77-6.49-1.15-9.83-.45,2.72,1.64,5.34,3.34,8.42,4.06Zm20.66-15.52c.69-.43,1.55-.99,1.11-2-.38-.87-1.29-1.01-2.16-1.01s-1.65.34-2.41.73c-2.97,1.5-5.44,3.68-7.85,5.97,4.22.04,7.86-1.55,11.31-3.69Zm-3.16,16c.08.4.26.82.49,1.16.45.66,1.06.64,1.53-.01.2-.28.4-.61.48-.94.64-2.75.05-5.25-1.51-8.01-1.14,2.8-1.52,5.25-.99,7.8Zm7.6,8.52c.03.14.09.27.14.4.49,1.16,1.54,2.12,2.05,1.81.92-.58.81-1.56.78-2.47-.08-2.25-1.32-3.95-2.93-5.93-.56,2.33-.48,4.26-.04,6.2Z"/>
      <path class="cls-1" d="m107.72,45.07c.69-.18.92-.64,1.18-1.3,1.26-3.16,2.88-6.15,4.81-8.96.44-.64.95-1.22,1.61-1.67.79-.53,1.59-.59,2.4-.14.76.43.98,1.16.94,1.99-.08,1.83-.74,3.43-1.78,4.92-.42.6-1.05,1.08-1.34,2.06,4.12-1.94,7.67-4.37,11.3-6.67.61-.39.69-1.03.88-1.63.57-1.83,1.3-3.59,2.23-5.27.45-.81.94-1.61,1.77-2.07.69-.38,1.46-.64,2.2-.08.64.49.73,1.2.61,1.92-.17,1.06-.59,2.04-1.19,2.93-.42.62-.86,1.21-1.41,1.99.81.1,1.31-.16,1.84-.3,1.23-.32,2.46-.69,3.71-.91,1.5-.26,2.79.43,3.17,1.54.33.98-.28,2.1-1.6,2.93-1.03.65-2.19.98-3.36,1.28-2.98.79-6.03.7-9.07.57-.72-.03-1.41-.07-2.05.31-2.08,1.26-4.16,2.53-6.49,3.96,2.01.08,3.7.09,5.39.21,1.41.1,2.82.31,4.1.99,1.67.88,1.71,2.23.08,3.21-1.04.63-2.17,1.09-3.39,1.16-4.69.27-9.33-.08-13.79-1.68-.56-.2-1.08-.35-1.63-.19-2.35.69-4.77,1.11-7.17,1.66,1.66.44,3.32.75,4.98,1.09.97.2,1.94.43,2.8.95,1.5.9,1.48,2.22-.06,3.08-.37.2-.79.31-1.19.44-1.95.63-3.92.51-5.86-.01-4.18-1.13-8.28-2.57-12.01-4.76-2.58-1.51-5.36-1.24-8.21-1.98.3.77.74.9,1.09,1.13,2,1.34,3.97,2.72,5.78,4.31,1.18,1.03,2.28,2.13,3.07,3.49.73,1.26.16,2.25-1.29,2.27-.72.01-1.39-.22-2.05-.49-1.19-.48-2.31-1.1-3.33-1.87-4.36-3.27-8.75-6.51-12.39-10.61-.53-.59-1.11-1.03-1.89-1.29-3.14-1.07-6.26-2.21-9.27-3.62-1.09-.51-2.14-1.11-3.08-1.87-.4-.33-.78-.74-.42-1.26.4-.58.9-.22,1.28.06,1.55,1.14,3.25,2.03,5.05,2.69,7.63,2.8,4.92,3.13,12.71-.15,1.89-.8,3.77-1.63,5.72-2.23,1.82-.56,3.74-.77,5.66-.59.73.07,1.43.34,1.73,1.06.35.83-.12,1.51-.65,2.1-.58.64-1.3,1.08-2.07,1.46-2.58,1.28-5.34,1.84-8.17,2.13-.66.07-1.34.01-2.32.54,2.91.89,5.55,1.26,8.14,1.86,1.8.42,3.11-.1,4.41-1.22,2.1-1.8,4.3-3.46,6.73-4.79,1.36-.74,2.74-1.46,4.39-1.35,2.02.14,2.76,1.44,1.69,3.17-.8,1.3-2,2.18-3.29,2.95-1.02.61-2.08,1.16-3.12,1.73,3.93.27,7.74-.22,11.49-1.19Zm19.38.57c-.52-1.01-1.33-1.04-2.04-1.19-3.62-.8-8.26-.47-12.09,1.06,4.64.87,9.27,2.18,14.13.14Zm-36.87,10.55c.25-.4-.05-.68-.26-.91-3.9-4.28-8.8-7.14-14.18-10.06,2.21,3.27,11.42,10.15,14.44,10.97Zm3.7-7.39c2.85,1.24,5.73,2.39,8.74,3.17,1.72.44,3.47.65,5.21.08.33-.11.68-.2.76-.62-1.45-.96-12.86-3.32-15.25-3.15.04.32.3.42.54.53Zm-17.93-6.87c4.57-.05,9.12-.17,12.75-3.54-4.8-.68-8.75,1.51-12.75,3.54Zm21.19,2.14c1.45-.73,2.84-1.59,3.89-2.88.23-.28.47-.61.33-.96-.21-.49-.7-.41-1.1-.32-.69.16-1.4.29-2.03.59-2.55,1.26-4.83,2.92-6.98,4.77-.07.06-.04.25-.08.55,2.18-.05,4.11-.81,5.97-1.75Zm19.29-6.46c.24-.5.4-1.05.51-1.6.13-.59.41-1.37-.33-1.66-.57-.22-1.01.38-1.34.83-1.75,2.37-3.13,4.95-4.13,7.73,2.36-1.27,4.16-2.97,5.3-5.3Zm21.13-2.16c.37-.19.74-.41,1.07-.66.29-.22.49-.53.36-.91-.13-.37-.49-.47-.84-.55-.65-.14-1.26.07-1.87.22-2.53.61-4.9,1.61-7.15,3.08,2.9.22,5.77.16,8.43-1.18Zm-4.83-7.75c-1.64,1.02-2.18,2.72-2.67,4.47,1.59-1.07,2.67-2.46,2.67-4.47Z"/>
    </g>
  </g>
</svg>