<svg width="141" height="58" viewBox="0 0 141 58" fill="none" xmlns="http://www.w3.org/2000/svg">
<g clip-path="url(#clip0_1_2)">
<path d="M69.07 12.4C69.6 12.21 69.78 11.76 69.97 11.29C70.61 9.69 71.64 8.34 72.81 7.09C73.52 6.33 74.25 5.68 73.98 4.38C73.78 3.43 74.55 2.83 75.52 2.76C76.69 2.68 77.69 3.38 77.91 4.42C78.1 5.36 77.76 6.02 76.66 6.3C74.07 6.96 73.14 9.15 71.52 11.33C74.41 10.66 76.81 10.13 79.19 9.53C80.23 9.27 81.1 8.64 81.92 7.95C83.54 6.58 85.19 5.25 86.83 3.9C88.04 2.91 89.32 2.02 90.69 1.29C91.44 0.89 92.21 0.53 93.01 0.25C94.35 -0.21 95.65 -0.05 96.89 0.68C98.67 1.73 98.95 3.37 97.48 4.87C95.64 6.74 93.17 7.52 90.85 8.56C90.26 8.83 89.51 8.83 88.98 9.52C92.57 10.31 95.73 11.96 99.15 12.87C99.96 13.09 100.77 13.4 101.53 13.76C102.26 14.11 102.84 14.26 103.68 13.86C104.87 13.29 105.8 13.78 106.28 14.88C106.76 15.99 106.47 17.22 105.6 17.7C104.63 18.24 103.19 17.93 102.68 16.81C101.85 14.99 100.22 14.87 98.33 14.23C99.04 15.53 99.73 16.46 99.74 17.5C99.78 19.87 101.12 21.58 102.38 23.36C102.83 24 103.28 24.64 103.63 25.33C104.53 27.09 104.82 28.97 104.35 30.9C103.89 32.78 102.42 33.34 100.79 32.34C99.44 31.51 98.71 30.25 98.43 28.72C98.12 26.97 98.04 25.2 98.37 23.44C98.67 21.82 98.63 20.2 98.44 18.58C98.22 16.71 97.55 15.64 96.1 14.61C96.24 15.23 96.39 15.78 96.49 16.33C96.76 17.87 96.87 19.42 96.48 20.96C96.05 22.68 95 23.69 93.67 23.66C92.42 23.63 91.51 22.72 91.03 21.01C90.74 19.98 90.66 18.92 90.71 17.86C90.78 16.37 91.04 14.92 91.48 13.49C91.97 11.9 91.86 11.73 90.2 11.33C87.92 10.78 85.6 10.55 83.25 10.69C82.3 10.75 81.31 10.67 80.14 11.17C82.2 12.21 83.93 13.26 86.08 13.17C86.95 13.13 87.25 13.84 87.52 14.51C87.81 15.22 87.79 15.9 87.21 16.46C86.64 17.01 85.96 17.08 85.24 16.79C84.55 16.52 83.96 16.12 83.92 15.29C83.88 14.51 83.36 14.18 82.75 13.95C81.56 13.49 80.36 13.03 79.24 12.47C75.96 10.86 73.32 12.74 70.33 13.53C70.73 14.14 71.1 14.09 71.45 14.12C73.28 14.29 75.1 14.55 76.89 15.02C78.55 15.46 80.08 16.22 81.48 17.19C83.14 18.34 82.99 20.1 81.25 21.11C80.37 21.62 79.41 21.82 78.4 21.84C76.39 21.89 74.46 21.54 72.6 20.78C69.91 19.68 67.23 18.58 64.88 16.82C64.43 16.48 63.95 16.16 63.33 16.48C60.48 17.96 57.62 19.43 54.76 20.91C54.79 21.07 54.82 21.23 54.85 21.39C57.26 21.09 59.43 22.47 61.88 22.1C62.86 21.95 63.72 22.72 63.93 23.6C64.17 24.57 63.64 25.53 62.62 25.98C61.23 26.59 59.93 26.08 59.37 24.65C59.15 24.08 59.18 23.44 58.34 23.25C55.73 22.65 53.06 22.61 50.58 23.36C48.42 24.01 46.5 25.47 44.43 26.59C44.95 27.14 45.47 26.88 45.92 26.87C47.76 26.85 49.61 26.9 51.42 27.25C53.71 27.69 56.01 28.21 57.94 29.64C58.96 30.39 60.17 31.16 59.81 32.68C59.46 34.17 58.05 34.44 56.81 34.66C52.82 35.34 48.93 35.02 45.16 33.43C43.06 32.55 41.13 31.38 39.19 30.22C38.6 29.87 38.01 29.32 37.25 29.53C34.57 30.25 31.9 31.01 28.94 31.84C30.54 32.55 31.91 32.78 33.34 32.73C34.12 32.71 34.9 32.69 35.6 33.14C36.4 33.65 36.75 34.64 36.44 35.54C36.14 36.4 35.17 36.89 34.18 36.62C33.4 36.41 32.76 35.97 32.49 35.16C32.36 34.76 32.31 34.28 31.79 34.19C29.48 33.78 27.33 32.58 25.06 32.38C22.44 32.15 19.75 32.47 17.05 32.43C18.15 33.37 19.31 34.12 20.41 34.95C22.33 36.41 24.16 37.99 25.35 40.14C26.25 41.76 25.7 42.76 23.87 42.87C21.91 42.98 20 42.59 18.43 41.42C14.43 38.45 10.93 34.95 8.25 30.73C7.57 29.66 6.8 28.89 5.68 28.36C4.14 27.63 2.69 26.74 1.41 25.61C0.93 25.19 0.5 24.72 0.22 24.14C0.03 23.74 -0.09 23.3 0.4 23.04C0.74 22.85 1.08 23.01 1.34 23.29C1.82 23.81 2.22 24.43 2.77 24.84C7.11 28.05 11.9 30.19 17.32 30.79C18.2 30.89 18.89 30.74 19.64 30.15C21.71 28.53 23.6 26.74 25.42 24.86C27.19 23.03 29.02 21.25 31.1 19.77C32.26 18.95 33.5 18.24 34.95 18.07C37.27 17.79 38.64 19.57 37.74 21.68C37.27 22.79 36.6 23.79 35.82 24.72C34.17 26.72 32.11 28.25 29.99 29.76C32.48 29.4 34.84 28.74 37.17 27.94C37.66 27.77 38.05 27.48 38.33 27.06C39.8 24.89 41.11 22.62 41.69 20.03C42.04 18.48 43.32 17.73 44.84 18.31C45.12 18.42 45.31 18.59 45.4 18.89C45.73 20.06 45.06 21.31 43.82 21.7C43.36 21.85 42.85 21.77 42.59 22.34C42.02 23.59 41.41 24.83 40.63 26.43C43.37 25.56 45.35 24.18 47.53 23.25C49.87 22.26 50.92 20.39 51.65 18.19C51.89 17.45 52.08 16.69 52.32 15.95C53.33 12.89 54.87 10.13 56.85 7.6C57.33 6.98 57.92 6.47 58.6 6.08C59.74 5.42 60.86 5.41 62.01 6.12C63.2 6.86 63.46 7.96 63.37 9.23C63.32 10.03 62.95 10.72 62.63 11.43C61.73 13.38 60.41 15.02 59.01 16.75C62.35 15.24 65.66 13.66 69.11 12.4H69.07ZM55.94 33.31C56.75 33.2 57.92 33.21 58.12 32.34C58.36 31.29 57.17 30.95 56.41 30.5C54.69 29.48 52.79 28.95 50.83 28.66C47.39 28.15 43.98 28.35 40.06 29.01C45.12 32.63 50.23 34.11 55.94 33.31ZM23.59 30.38C28.45 29.1 32.6 26.7 35.52 22.49C36.06 21.72 37.01 20.79 36.18 19.86C35.39 18.97 34.32 19.71 33.45 20.1C32.21 20.64 31.13 21.47 30.16 22.39C27.5 24.91 24.88 27.48 22.25 30.03C22.17 30.11 22.19 30.29 22.16 30.43C22.65 30.67 23.14 30.51 23.6 30.38H23.59ZM61.26 10.78C61.58 10.14 61.82 9.47 61.83 8.75C61.85 7.36 60.8 6.68 59.53 7.27C58.54 7.74 57.89 8.6 57.28 9.47C55.27 12.33 53.76 15.43 52.95 19.39C56.52 16.83 59.43 14.34 61.25 10.78H61.26ZM10.68 31.22C10.34 31.74 10.84 32 11.07 32.27C13.08 34.72 15.25 37.03 17.68 39.06C19.43 40.52 21.4 41.61 24 41.31C22.61 37.81 16.14 32.95 10.68 31.21V31.22ZM74.94 20.03C76.53 20.4 78.15 20.6 79.76 20.11C80.31 19.95 80.91 19.71 80.94 19.05C80.97 18.52 80.48 18.21 80.05 17.95C78.89 17.25 77.66 16.73 76.34 16.42C73.11 15.65 69.85 15.27 66.51 15.97C69.23 17.61 71.85 19.31 74.93 20.03H74.94ZM95.6 4.51C96.29 4.08 97.15 3.52 96.71 2.51C96.33 1.64 95.42 1.5 94.55 1.5C93.68 1.5 92.9 1.84 92.14 2.23C89.17 3.73 86.7 5.91 84.29 8.2C88.51 8.24 92.15 6.65 95.6 4.51ZM92.44 20.51C92.52 20.91 92.7 21.33 92.93 21.67C93.38 22.33 93.99 22.31 94.46 21.66C94.66 21.38 94.86 21.05 94.94 20.72C95.58 17.97 94.99 15.47 93.43 12.71C92.29 15.51 91.91 17.96 92.44 20.51ZM100.04 29.03C100.07 29.17 100.13 29.3 100.18 29.43C100.67 30.59 101.72 31.55 102.23 31.24C103.15 30.66 103.04 29.68 103.01 28.77C102.93 26.52 101.69 24.82 100.08 22.84C99.52 25.17 99.6 27.1 100.04 29.04V29.03Z" fill="#6B356B"/>
<path d="M107.72 45.07C108.41 44.89 108.64 44.43 108.9 43.77C110.16 40.61 111.78 37.62 113.71 34.81C114.15 34.17 114.66 33.59 115.32 33.14C116.11 32.61 116.91 32.55 117.72 33C118.48 33.43 118.7 34.16 118.66 34.99C118.58 36.82 117.92 38.42 116.88 39.91C116.46 40.51 115.83 40.99 115.54 41.97C119.66 40.03 123.21 37.6 126.84 35.3C127.45 34.91 127.53 34.27 127.72 33.67C128.29 31.84 129.02 30.08 129.95 28.4C130.4 27.59 130.89 26.79 131.72 26.33C132.41 25.95 133.18 25.69 133.92 26.25C134.56 26.74 134.65 27.45 134.53 28.17C134.36 29.23 133.94 30.21 133.34 31.1C132.92 31.72 132.48 32.31 131.93 33.09C132.74 33.19 133.24 32.93 133.77 32.79C135 32.47 136.23 32.1 137.48 31.88C138.98 31.62 140.27 32.31 140.65 33.42C140.98 34.4 140.37 35.52 139.05 36.35C138.02 37 136.86 37.33 135.69 37.63C132.71 38.42 129.66 38.33 126.62 38.2C125.9 38.17 125.21 38.13 124.57 38.51C122.49 39.77 120.41 41.04 118.08 42.47C120.09 42.55 121.78 42.56 123.47 42.68C124.88 42.78 126.29 42.99 127.57 43.67C129.24 44.55 129.28 45.9 127.65 46.88C126.61 47.51 125.48 47.97 124.26 48.04C119.57 48.31 114.93 47.96 110.47 46.36C109.91 46.16 109.39 46.01 108.84 46.17C106.49 46.86 104.07 47.28 101.67 47.83C103.33 48.27 104.99 48.58 106.65 48.92C107.62 49.12 108.59 49.35 109.45 49.87C110.95 50.77 110.93 52.09 109.39 52.95C109.02 53.15 108.6 53.26 108.2 53.39C106.25 54.02 104.28 53.9 102.34 53.38C98.16 52.25 94.06 50.81 90.33 48.62C87.75 47.11 84.97 47.38 82.12 46.64C82.42 47.41 82.86 47.54 83.21 47.77C85.21 49.11 87.18 50.49 88.99 52.08C90.17 53.11 91.27 54.21 92.06 55.57C92.79 56.83 92.22 57.82 90.77 57.84C90.05 57.85 89.38 57.62 88.72 57.35C87.53 56.87 86.41 56.25 85.39 55.48C81.03 52.21 76.64 48.97 73 44.87C72.47 44.28 71.89 43.84 71.11 43.58C67.97 42.51 64.85 41.37 61.84 39.96C60.75 39.45 59.7 38.85 58.76 38.09C58.36 37.76 57.98 37.35 58.34 36.83C58.74 36.25 59.24 36.61 59.62 36.89C61.17 38.03 62.87 38.92 64.67 39.58C72.3 42.38 69.59 42.71 77.38 39.43C79.27 38.63 81.15 37.8 83.1 37.2C84.92 36.64 86.84 36.43 88.76 36.61C89.49 36.68 90.19 36.95 90.49 37.67C90.84 38.5 90.37 39.18 89.84 39.77C89.26 40.41 88.54 40.85 87.77 41.23C85.19 42.51 82.43 43.07 79.6 43.36C78.94 43.43 78.26 43.37 77.28 43.9C80.19 44.79 82.83 45.16 85.42 45.76C87.22 46.18 88.53 45.66 89.83 44.54C91.93 42.74 94.13 41.08 96.56 39.75C97.92 39.01 99.3 38.29 100.95 38.4C102.97 38.54 103.71 39.84 102.64 41.57C101.84 42.87 100.64 43.75 99.35 44.52C98.33 45.13 97.27 45.68 96.23 46.25C100.16 46.52 103.97 46.03 107.72 45.06V45.07ZM127.1 45.64C126.58 44.63 125.77 44.6 125.06 44.45C121.44 43.65 116.8 43.98 112.97 45.51C117.61 46.38 122.24 47.69 127.1 45.65V45.64ZM90.23 56.19C90.48 55.79 90.18 55.51 89.97 55.28C86.07 51 81.17 48.14 75.79 45.22C78 48.49 87.21 55.37 90.23 56.19ZM93.93 48.8C96.78 50.04 99.66 51.19 102.67 51.97C104.39 52.41 106.14 52.62 107.88 52.05C108.21 51.94 108.56 51.85 108.64 51.43C107.19 50.47 95.78 48.11 93.39 48.28C93.43 48.6 93.69 48.7 93.93 48.81V48.8ZM76 41.93C80.57 41.88 85.12 41.76 88.75 38.39C83.95 37.71 80 39.9 76 41.93ZM97.19 44.07C98.64 43.34 100.03 42.48 101.08 41.19C101.31 40.91 101.55 40.58 101.41 40.23C101.2 39.74 100.71 39.82 100.31 39.91C99.62 40.07 98.91 40.2 98.28 40.5C95.73 41.76 93.45 43.42 91.3 45.27C91.23 45.33 91.26 45.52 91.22 45.82C93.4 45.77 95.33 45.01 97.19 44.07ZM116.48 37.61C116.72 37.11 116.88 36.56 116.99 36.01C117.12 35.42 117.4 34.64 116.66 34.35C116.09 34.13 115.65 34.73 115.32 35.18C113.57 37.55 112.19 40.13 111.19 42.91C113.55 41.64 115.35 39.94 116.49 37.61H116.48ZM137.61 35.45C137.98 35.26 138.35 35.04 138.68 34.79C138.97 34.57 139.17 34.26 139.04 33.88C138.91 33.51 138.55 33.41 138.2 33.33C137.55 33.19 136.94 33.4 136.33 33.55C133.8 34.16 131.43 35.16 129.18 36.63C132.08 36.85 134.95 36.79 137.61 35.45ZM132.78 27.7C131.14 28.72 130.6 30.42 130.11 32.17C131.7 31.1 132.78 29.71 132.78 27.7Z" fill="#6B356B"/>
</g>
<defs>
<clipPath id="clip0_1_2">
<rect width="140.73" height="57.86" fill="white"/>
</clipPath>
</defs>
</svg>
