<svg width="141" height="58" viewBox="0 0 141 58" fill="none" xmlns="http://www.w3.org/2000/svg">
<g clip-path="url(#clip0_1_2)">
<path d="M71.66 12.4C71.13 12.21 70.95 11.76 70.76 11.29C70.12 9.69 69.09 8.34 67.92 7.09C67.21 6.33 66.48 5.68 66.75 4.38C66.95 3.43 66.18 2.83 65.21 2.76C64.04 2.68 63.04 3.38 62.82 4.42C62.63 5.36 62.97 6.02 64.07 6.3C66.66 6.96 67.59 9.15 69.21 11.33C66.32 10.66 63.92 10.13 61.54 9.53C60.5 9.27 59.63 8.64 58.81 7.95C57.19 6.58 55.54 5.25 53.9 3.9C52.69 2.91 51.41 2.02 50.04 1.29C49.29 0.89 48.52 0.53 47.72 0.25C46.38 -0.21 45.08 -0.05 43.84 0.68C42.06 1.73 41.78 3.37 43.25 4.87C45.09 6.74 47.56 7.52 49.88 8.56C50.47 8.83 51.22 8.83 51.75 9.52C48.16 10.31 45 11.96 41.58 12.87C40.77 13.09 39.96 13.4 39.2 13.76C38.47 14.11 37.89 14.26 37.05 13.86C35.86 13.29 34.93 13.78 34.45 14.88C33.97 15.99 34.26 17.22 35.13 17.7C36.1 18.24 37.54 17.93 38.05 16.81C38.88 14.99 40.51 14.87 42.4 14.23C41.69 15.53 41 16.46 40.99 17.5C40.95 19.87 39.61 21.58 38.35 23.36C37.9 24 37.45 24.64 37.1 25.33C36.2 27.09 35.91 28.97 36.38 30.9C36.84 32.78 38.31 33.34 39.94 32.34C41.29 31.51 42.02 30.25 42.3 28.72C42.61 26.97 42.69 25.2 42.36 23.44C42.06 21.82 42.1 20.2 42.29 18.58C42.51 16.71 43.18 15.64 44.63 14.61C44.49 15.23 44.34 15.78 44.24 16.33C43.97 17.87 43.86 19.42 44.25 20.96C44.68 22.68 45.73 23.69 47.06 23.66C48.31 23.63 49.22 22.72 49.7 21.01C49.99 19.98 50.07 18.92 50.02 17.86C49.95 16.37 49.69 14.92 49.25 13.49C48.76 11.9 48.87 11.73 50.53 11.33C52.81 10.78 55.13 10.55 57.48 10.69C58.43 10.75 59.42 10.67 60.59 11.17C58.53 12.21 56.8 13.26 54.65 13.17C53.78 13.13 53.48 13.84 53.21 14.51C52.92 15.22 52.94 15.9 53.52 16.46C54.09 17.01 54.77 17.08 55.49 16.79C56.18 16.52 56.77 16.12 56.81 15.29C56.85 14.51 57.37 14.18 57.98 13.95C59.17 13.49 60.37 13.03 61.49 12.47C64.77 10.86 67.41 12.74 70.4 13.53C70 14.14 69.63 14.09 69.28 14.12C67.45 14.29 65.63 14.55 63.84 15.02C62.18 15.46 60.65 16.22 59.25 17.19C57.59 18.34 57.74 20.1 59.48 21.11C60.36 21.62 61.32 21.82 62.33 21.84C64.34 21.89 66.27 21.54 68.13 20.78C70.82 19.68 73.5 18.58 75.85 16.82C76.3 16.48 76.78 16.16 77.4 16.48C80.25 17.96 83.11 19.43 85.97 20.91C85.94 21.07 85.91 21.23 85.88 21.39C83.47 21.09 81.3 22.47 78.85 22.1C77.87 21.95 77.01 22.72 76.8 23.6C76.56 24.57 77.09 25.53 78.11 25.98C79.5 26.59 80.8 26.08 81.36 24.65C81.58 24.08 81.55 23.44 82.39 23.25C85 22.65 87.67 22.61 90.15 23.36C92.31 24.01 94.23 25.47 96.3 26.59C95.78 27.14 95.26 26.88 94.81 26.87C92.97 26.85 91.12 26.9 89.31 27.25C87.02 27.69 84.72 28.21 82.79 29.64C81.77 30.39 80.56 31.16 80.92 32.68C81.27 34.17 82.68 34.44 83.92 34.66C87.91 35.34 91.8 35.02 95.57 33.43C97.67 32.55 99.6 31.38 101.54 30.22C102.13 29.87 102.72 29.32 103.48 29.53C106.16 30.25 108.83 31.01 111.79 31.84C110.19 32.55 108.82 32.78 107.39 32.73C106.61 32.71 105.83 32.69 105.13 33.14C104.33 33.65 103.98 34.64 104.29 35.54C104.59 36.4 105.56 36.89 106.55 36.62C107.33 36.41 107.97 35.97 108.24 35.16C108.37 34.76 108.42 34.28 108.94 34.19C111.25 33.78 113.4 32.58 115.67 32.38C118.29 32.15 120.98 32.47 123.68 32.43C122.58 33.37 121.42 34.12 120.32 34.95C118.4 36.41 116.57 37.99 115.38 40.14C114.48 41.76 115.03 42.76 116.86 42.87C118.82 42.98 120.73 42.59 122.3 41.42C126.3 38.45 129.8 34.95 132.48 30.73C133.16 29.66 133.93 28.89 135.05 28.36C136.59 27.63 138.04 26.74 139.32 25.61C139.8 25.19 140.23 24.72 140.51 24.14C140.7 23.74 140.82 23.3 140.33 23.04C139.99 22.85 139.65 23.01 139.39 23.29C138.91 23.81 138.51 24.43 137.96 24.84C133.62 28.05 128.83 30.19 123.41 30.79C122.53 30.89 121.84 30.74 121.09 30.15C119.02 28.53 117.13 26.74 115.31 24.86C113.54 23.03 111.71 21.25 109.63 19.77C108.47 18.95 107.23 18.24 105.78 18.07C103.46 17.79 102.09 19.57 102.99 21.68C103.46 22.79 104.13 23.79 104.91 24.72C106.56 26.72 108.62 28.25 110.74 29.76C108.25 29.4 105.89 28.74 103.56 27.94C103.07 27.77 102.68 27.48 102.4 27.06C100.93 24.89 99.62 22.62 99.04 20.03C98.69 18.48 97.41 17.73 95.89 18.31C95.61 18.42 95.42 18.59 95.33 18.89C95 20.06 95.67 21.31 96.91 21.7C97.37 21.85 97.88 21.77 98.14 22.34C98.71 23.59 99.32 24.83 100.1 26.43C97.36 25.56 95.38 24.18 93.2 23.25C90.86 22.26 89.81 20.39 89.08 18.19C88.84 17.45 88.65 16.69 88.41 15.95C87.4 12.89 85.86 10.13 83.88 7.6C83.4 6.98 82.81 6.47 82.13 6.08C80.99 5.42 79.87 5.41 78.72 6.12C77.53 6.86 77.27 7.96 77.36 9.23C77.41 10.03 77.78 10.72 78.1 11.43C79 13.38 80.32 15.02 81.72 16.75C78.38 15.24 75.07 13.66 71.62 12.4H71.66ZM84.79 33.31C83.98 33.2 82.81 33.21 82.61 32.34C82.37 31.29 83.56 30.95 84.32 30.5C86.04 29.48 87.94 28.95 89.9 28.66C93.34 28.15 96.75 28.35 100.67 29.01C95.61 32.63 90.5 34.11 84.79 33.31ZM117.14 30.38C112.28 29.1 108.13 26.7 105.21 22.49C104.67 21.72 103.72 20.79 104.55 19.86C105.34 18.97 106.41 19.71 107.28 20.1C108.52 20.64 109.6 21.47 110.57 22.39C113.23 24.91 115.85 27.48 118.48 30.03C118.56 30.11 118.54 30.29 118.57 30.43C118.08 30.67 117.59 30.51 117.13 30.38H117.14ZM79.47 10.78C79.15 10.14 78.91 9.47 78.9 8.75C78.88 7.36 79.93 6.68 81.2 7.27C82.19 7.74 82.84 8.6 83.45 9.47C85.46 12.33 86.97 15.43 87.78 19.39C84.21 16.83 81.3 14.34 79.48 10.78H79.47ZM130.05 31.22C130.39 31.74 129.89 32 129.66 32.27C127.65 34.72 125.48 37.03 123.05 39.06C121.3 40.52 119.33 41.61 116.73 41.31C118.12 37.81 124.59 32.95 130.05 31.21V31.22ZM65.79 20.03C64.2 20.4 62.58 20.6 60.97 20.11C60.42 19.95 59.82 19.71 59.79 19.05C59.76 18.52 60.25 18.21 60.68 17.95C61.84 17.25 63.07 16.73 64.39 16.42C67.62 15.65 70.88 15.27 74.22 15.97C71.5 17.61 68.88 19.31 65.8 20.03H65.79ZM45.13 4.51C44.44 4.08 43.58 3.52 44.02 2.51C44.4 1.64 45.31 1.5 46.18 1.5C47.05 1.5 47.83 1.84 48.59 2.23C51.56 3.73 54.03 5.91 56.44 8.2C52.22 8.24 48.58 6.65 45.13 4.51ZM48.29 20.51C48.21 20.91 48.03 21.33 47.8 21.67C47.35 22.33 46.74 22.31 46.27 21.66C46.07 21.38 45.87 21.05 45.79 20.72C45.15 17.97 45.74 15.47 47.3 12.71C48.44 15.51 48.82 17.96 48.29 20.51ZM40.69 29.03C40.66 29.17 40.6 29.3 40.55 29.43C40.06 30.59 39.01 31.55 38.5 31.24C37.58 30.66 37.69 29.68 37.72 28.77C37.8 26.52 39.04 24.82 40.65 22.84C41.21 25.17 41.13 27.1 40.69 29.04V29.03Z" fill="#6B356B"/>
<path d="M33.01 45.07C32.32 44.89 32.09 44.43 31.83 43.77C30.57 40.61 28.95 37.62 27.02 34.81C26.58 34.17 26.07 33.59 25.41 33.14C24.62 32.61 23.82 32.55 23.01 33C22.25 33.43 22.03 34.16 22.07 34.99C22.15 36.82 22.81 38.42 23.85 39.91C24.27 40.51 24.9 40.99 25.19 41.97C21.07 40.03 17.52 37.6 13.89 35.3C13.28 34.91 13.2 34.27 13.01 33.67C12.44 31.84 11.71 30.08 10.78 28.4C10.33 27.59 9.84 26.79 9.01 26.33C8.32 25.95 7.55 25.69 6.81001 26.25C6.17001 26.74 6.08 27.45 6.2 28.17C6.37 29.23 6.79001 30.21 7.39001 31.1C7.81001 31.72 8.25001 32.31 8.80001 33.09C7.99001 33.19 7.49 32.93 6.96 32.79C5.73 32.47 4.50001 32.1 3.25001 31.88C1.75001 31.62 0.460007 32.31 0.0800095 33.42C-0.249992 34.4 0.360001 35.52 1.68 36.35C2.71 37 3.87 37.33 5.04 37.63C8.02 38.42 11.07 38.33 14.11 38.2C14.83 38.17 15.52 38.13 16.16 38.51C18.24 39.77 20.32 41.04 22.65 42.47C20.64 42.55 18.95 42.56 17.26 42.68C15.85 42.78 14.44 42.99 13.16 43.67C11.49 44.55 11.45 45.9 13.08 46.88C14.12 47.51 15.25 47.97 16.47 48.04C21.16 48.31 25.8 47.96 30.26 46.36C30.82 46.16 31.34 46.01 31.89 46.17C34.24 46.86 36.66 47.28 39.06 47.83C37.4 48.27 35.74 48.58 34.08 48.92C33.11 49.12 32.14 49.35 31.28 49.87C29.78 50.77 29.8 52.09 31.34 52.95C31.71 53.15 32.13 53.26 32.53 53.39C34.48 54.02 36.45 53.9 38.39 53.38C42.57 52.25 46.67 50.81 50.4 48.62C52.98 47.11 55.76 47.38 58.61 46.64C58.31 47.41 57.87 47.54 57.52 47.77C55.52 49.11 53.55 50.49 51.74 52.08C50.56 53.11 49.46 54.21 48.67 55.57C47.94 56.83 48.51 57.82 49.96 57.84C50.68 57.85 51.35 57.62 52.01 57.35C53.2 56.87 54.32 56.25 55.34 55.48C59.7 52.21 64.09 48.97 67.73 44.87C68.26 44.28 68.84 43.84 69.62 43.58C72.76 42.51 75.88 41.37 78.89 39.96C79.98 39.45 81.03 38.85 81.97 38.09C82.37 37.76 82.75 37.35 82.39 36.83C81.99 36.25 81.49 36.61 81.11 36.89C79.56 38.03 77.86 38.92 76.06 39.58C68.43 42.38 71.14 42.71 63.35 39.43C61.46 38.63 59.58 37.8 57.63 37.2C55.81 36.64 53.89 36.43 51.97 36.61C51.24 36.68 50.54 36.95 50.24 37.67C49.89 38.5 50.36 39.18 50.89 39.77C51.47 40.41 52.19 40.85 52.96 41.23C55.54 42.51 58.3 43.07 61.13 43.36C61.79 43.43 62.47 43.37 63.45 43.9C60.54 44.79 57.9 45.16 55.31 45.76C53.51 46.18 52.2 45.66 50.9 44.54C48.8 42.74 46.6 41.08 44.17 39.75C42.81 39.01 41.43 38.29 39.78 38.4C37.76 38.54 37.02 39.84 38.09 41.57C38.89 42.87 40.09 43.75 41.38 44.52C42.4 45.13 43.46 45.68 44.5 46.25C40.57 46.52 36.76 46.03 33.01 45.06V45.07ZM13.63 45.64C14.15 44.63 14.96 44.6 15.67 44.45C19.29 43.65 23.93 43.98 27.76 45.51C23.12 46.38 18.49 47.69 13.63 45.65V45.64ZM50.5 56.19C50.25 55.79 50.55 55.51 50.76 55.28C54.66 51 59.56 48.14 64.94 45.22C62.73 48.49 53.52 55.37 50.5 56.19ZM46.8 48.8C43.95 50.04 41.07 51.19 38.06 51.97C36.34 52.41 34.59 52.62 32.85 52.05C32.52 51.94 32.17 51.85 32.09 51.43C33.54 50.47 44.95 48.11 47.34 48.28C47.3 48.6 47.04 48.7 46.8 48.81V48.8ZM64.73 41.93C60.16 41.88 55.61 41.76 51.98 38.39C56.78 37.71 60.73 39.9 64.73 41.93ZM43.54 44.07C42.09 43.34 40.7 42.48 39.65 41.19C39.42 40.91 39.18 40.58 39.32 40.23C39.53 39.74 40.02 39.82 40.42 39.91C41.11 40.07 41.82 40.2 42.45 40.5C45 41.76 47.28 43.42 49.43 45.27C49.5 45.33 49.47 45.52 49.51 45.82C47.33 45.77 45.4 45.01 43.54 44.07ZM24.25 37.61C24.01 37.11 23.85 36.56 23.74 36.01C23.61 35.42 23.33 34.64 24.07 34.35C24.64 34.13 25.08 34.73 25.41 35.18C27.16 37.55 28.54 40.13 29.54 42.91C27.18 41.64 25.38 39.94 24.24 37.61H24.25ZM3.12 35.45C2.75 35.26 2.38001 35.04 2.05001 34.79C1.76001 34.57 1.56001 34.26 1.69001 33.88C1.82001 33.51 2.18001 33.41 2.53001 33.33C3.18001 33.19 3.79 33.4 4.4 33.55C6.93 34.16 9.30001 35.16 11.55 36.63C8.65001 36.85 5.78001 36.79 3.12 35.45ZM7.95 27.7C9.59 28.72 10.13 30.42 10.62 32.17C9.03001 31.1 7.95 29.71 7.95 27.7Z" fill="#6B356B"/>
</g>
<defs>
<clipPath id="clip0_1_2">
<rect width="140.73" height="57.86" fill="white" transform="matrix(-1 0 0 1 140.73 0)"/>
</clipPath>
</defs>
</svg>
